# xmcd CD database file
#
# Track frame offsets:
#	150
#	21290
#	42388
#	63691
#	84462
#	99591
#	121313
#	142730
#	163399
#	183754
#	204784
#	225145
#	244737
#	266886
#	287124
#	307029
#	329749
#
# Disc length: 4661 seconds
#
# Revision: 0
# Processed by: cddbd v1.5.2PL0 Copyright (c) Steve Scherf et al.
# Submitted via: CDex 1.70beta2
#
DISCID=f2123311
DTITLE=Various Artist - Salsa Del Momento
DYEAR=2010
DGENRE=Salsa
TTITLE0=Tito Nieves - Tu Cárcel
TTITLE1=Grupo Galé - Perdóname
TTITLE2=Willie González - Mi Mundo Tú
TTITLE3=Maelo Ruiz - He Vuelto Por Ti
TTITLE4=El Klan De Porfi - Me Enamoré
TTITLE5=Grupo Niche - Ni Como Amiga Ni Como Amante
TTITLE6=Tito Nieves - A Que Me Quedo Contigo
TTITLE7=Grupo Galé - El Amor De Mi Vida
TTITLE8=Maelo Ruiz - Y Es Por Ti
TTITLE9=Alex De Castro - Te Extraño
TTITLE10=Frederick - Ya No Sé De Ella
TTITLE11=Samir - No Puedo Dejar De Quererte
TTITLE12=Tito Nieves - Tuyo
TTITLE13=Grupo Galé - Fantasías
TTITLE14=Frederick - Yo Te Juro
TTITLE15=Alex De Castro - Mi Razón De Ser
TTITLE16=Pedro Arroyo - Tu Ausencia
EXTD=YEAR: 2010
EXTT0=
EXTT1=
EXTT2=
EXTT3=
EXTT4=
EXTT5=
EXTT6=
EXTT7=
EXTT8=
EXTT9=
EXTT10=
EXTT11=
EXTT12=
EXTT13=
EXTT14=
EXTT15=
EXTT16=
PLAYORDER=
